<?xml version="1.0" encoding="UTF-8"?>
<svg xmlns="http://www.w3.org/2000/svg" version="1.1" viewBox="0 0 578.9 382.8">
  <defs>
    <style>
      .cls-1 {
        fill: #fff;
      }

      .cls-2 {
        fill: #95958f;
      }

      .cls-3 {
        fill: #084226;
      }
    </style>
  </defs>
  <!-- Generator: Adobe Illustrator 28.7.2, SVG Export Plug-In . SVG Version: 1.2.0 Build 154)  -->
  <g>
    <g id="Layer_1">
      <g id="Layer_1-2" data-name="Layer_1">
        <g>
          <path class="cls-2" d="M35.6,29.4h345.4c18.8,0,34.1,15.3,34.1,34.1v173.7c0,18.8-15.3,34.1-34.1,34.1H35.6c-18.8,0-34.1-15.3-34.1-34.1V63.5c0-18.8,15.3-34.1,34.1-34.1h0Z"/>
          <path class="cls-3" d="M208,251.4H42.9c-3.3,0-6.6-.2-9.7-1.4-6.8-2.5-12.7-9.3-12.7-18.2V68.8c0-10,7.8-18.1,17.4-19.3,1.6-.2,3.1-.3,4.7-.3h331.5c5.4,0,10.4,1.1,14.7,4.5,4.7,3.7,7.3,8.5,7.3,14.6v162.4c0,1.7,0,3.5-.3,5.1-1.6,8.3-8.9,14.8-17.4,15.5-1.8.2-3.6.2-5.3.2h-165.1ZM127.5,79.7v141.3h109.7v-28.9h-66.9c-2.2,0-4.3.1-6.5,0v-29.9h64.9v-28.5h-64.9v-24.8h56.9c4.7,0,9.4.1,14.1-.1.4-3.2.3-27.5-.1-28.9h-107.2v-.2ZM259,79.7v141.2c2.9.4,108.2.3,109.6,0v-28.8h-73.2v-30h65v-28.5h-64.9c-.4-2.3-.4-23,.1-24.8h70.7c.5-2.6.4-27.5,0-29h-107.3ZM62.7,79.7v141.3h35.9c.4-2.1.4-139.7,0-141.3h-35.9Z"/>
          <g>
            <path class="cls-1" d="M516.2,383.8c2.7-3.2,5.4-6.4,8.2-9.5,8-9.2,16.1-18.4,24.2-27.6.4-.5.8-.9,1.3-1.6-11.2-12.9-22.4-25.8-33.7-39,.6,0,.9-.2,1.3-.2h21.4c1,0,1.6.3,2.3,1,11.4,12.3,22.8,24.5,34.3,36.8.4.4.7.8,1.1,1.4-.7.7-1.2,1.4-1.8,2-11,11.6-22,23.2-33.1,34.8-.6.6-1,1.3-1.6,1.9h-23.9Z"/>
            <path class="cls-1" d="M454.3,383.8c.4-.6.8-1.3,1.2-1.8,10.3-11.7,20.5-23.5,30.8-35.2.5-.5.9-1,1.4-1.7-11.2-13-22.4-25.9-33.8-39,.8,0,1.3-.2,1.8-.2h20.6c1.2,0,2,.3,2.8,1.2,8.1,8.8,16.2,17.6,24.3,26.3,3.1,3.4,6.3,6.7,9.5,10,.5.5.9,1,1.4,1.6-.5.5-.9,1-1.3,1.4-11.3,11.8-22.5,23.7-33.8,35.5-.5.5-.8,1.2-1.3,1.8h-23.9.3Z"/>
            <path class="cls-1" d="M383.4,307.4c5.3,0,10.5.7,15.4,3,2.3,1.1,3.5,2.7,3.5,5.3s0,4.1-.3,6.2c-.3,2-1.2,2.3-3,1.5-2.7-1.2-5.3-2.5-8.1-3.5-3.2-1.1-6.5-1.2-9.7-.4-2.8.7-4.8,2.3-5.5,5.2-.8,3.1,0,5.8,2.6,7.7,2,1.5,4.3,2.8,6.5,3.9,3.2,1.7,6.6,3,9.8,4.7,2.2,1.2,4.2,2.6,6,4.2,5.2,4.8,6.7,10.9,5.8,17.7-1.3,9.4-6.9,15.2-15.7,18-8.4,2.7-16.8,2.2-25-1-1.3-.5-2.6-1.3-3.8-2-1.5-.8-2.4-2.1-2.5-3.8,0-2.3-.2-4.5,0-6.8.3-2.7,1.6-3.3,3.9-1.9,3.4,2,6.9,3.8,10.7,4.6,3.1.7,6.2.9,9.4.2,4.3-.9,7-3.5,7.7-7.5.4-2.4,0-4.6-1.8-6.3-1.4-1.3-3-2.6-4.8-3.5-2.7-1.4-5.5-2.5-8.2-3.9-2.9-1.5-5.9-3-8.5-5-6.4-4.9-8.3-11.7-7.2-19.5,1.2-7.7,5.7-12.7,13-15.4,3.2-1.2,6.5-1.7,9.9-1.8h-.1Z"/>
            <path class="cls-1" d="M269.3,320.6v19.4h21c2.3,0,3,.5,3.2,2.8.2,2,.2,4.1,0,6.2-.2,2.3-1,2.9-3.4,2.9h-20.9v25.6c0,2.5-.4,3-2.8,3.5-3.1.5-6.3.6-9.4,0-2.2-.4-2.6-1-2.6-3.2v-64.3c0-3.7,1.4-5.1,5.1-5.1h32.1c10.7,0,2.9.4,3.2,2.6.2,2.3.2,4.7,0,6.9s-.9,2.6-3.1,2.6h-22.4Z"/>
            <path class="cls-1" d="M320.2,320.6h-16.7c-2.5,0-3.2-.5-3.4-3-.2-2.2-.1-4.4,0-6.6.2-2.1.9-2.6,3-2.6h49c2.2,0,2.8.8,3,2.6.2,2.3.2,4.7,0,7-.2,2.1-1,2.6-3.2,2.6h-16.8v57.9c0,1.4-.5,2-1.8,2.4-.9.2-1.9.5-2.8.5-2.5,0-5,0-7.4-.3-2.5-.3-2.8-.8-2.8-3.4v-57h0Z"/>
            <path class="cls-1" d="M49,347.3v25.9h26.9c3.1,0,3.8.7,3.9,3.9v.8c-.2,2.9-.7,3.4-3.6,3.4h-33.5c-2.1-.2-3.2-1.3-3.4-3.4v-64.2c0-4.3,1-5.2,5.2-5.2h31.5c2.7,0,3.2.5,3.4,3.2v2.3c-.3,2.3-.8,2.7-3,2.7h-27.1v22.8h22.8c2.5,0,3.1.5,3.4,3.1v1c0,3.2-.6,3.8-3.8,3.8h-22.7Z"/>
            <path class="cls-1" d="M105.6,373.3h28.4c1.1,0,1.9.7,2,1.8.1,1.5.2,3,0,4.5-.1,1.2-.9,1.7-2.1,1.8h-34.9c-1.9-.2-3-1.3-3.2-3.2v-66.1c.1-2.2,1.3-3.4,3.5-3.6h33.2c2.7,0,3.2.5,3.4,3.2v2.5c-.2,1.9-.8,2.5-2.8,2.5h-27.5v22.8h22.8c2.9,0,3.5.5,3.5,3.5s0,1.8-.1,2.7c-.1,1.1-.8,1.7-1.9,1.8h-23.8c-.5,1.6-.6,23.7-.1,26h0l-.4-.2Z"/>
            <path class="cls-1" d="M190,369.2h22.3c1.4,0,2,.5,2.3,1.9.6,2.7.6,5.5,0,8.2-.4,1.6-.9,2-2.6,2.1h-33.6c-1.9-.3-3.1-1.6-3.3-3.4v-65.5c0-2.7.3-3.1,3.1-3.6,3-.5,6-.5,9,0,2.3.4,2.7,1,2.7,3.3v57.1h0Z"/>
            <path class="cls-1" d="M223.7,344.7v-33.6c0-1.1.5-1.8,1.6-2.1s2.1-.5,3.2-.5c2.5,0,5,0,7.4.3s2.7.9,2.7,3.3v65.5c0,2.8-.5,3.5-3.2,3.7-2.8.2-5.6.2-8.4,0s-3.2-.9-3.2-3.7v-33h-.1Z"/>
            <path class="cls-1" d="M19.8,344.9v34.6c0,1-.4,1.7-1.4,1.9-2.3.5-4.6.5-6.9,0-.9-.2-1.3-.7-1.3-1.6v-68c0-3,.1-3.2,3-3.5,1.7-.2,3.4,0,5.1.2,1.1,0,1.6.8,1.6,2v34.4h-.1Z"/>
          </g>
          <g>
            <path class="cls-1" d="M436.9,2.8c12.4,0,22.9,10.2,23,22.5,0,13-10.1,23.3-23.1,23.4-12.5.1-23-10.5-23-23.2s10.4-22.7,23.1-22.7h0ZM456,25.8c0-10.9-8.4-19.2-19.2-19.3-10.6,0-19.3,8.7-19.2,19.3,0,9.5,7.1,19,19.1,19.1,12.2.1,19.7-10.1,19.3-19.2h0Z"/>
            <path class="cls-1" d="M443.2,36l-4.2-6h-5.4v6h-3.8V15.6h8.4c5.4,0,8.7,2.7,8.7,7.3s-1.6,5.4-4.3,6.4l4.7,6.7h-4.1ZM438,18.8h-4.4v8.1h4.4c3.3,0,5-1.5,5-4.1s-1.7-4-5-4h0Z"/>
          </g>
          <g>
            <path class="cls-1" d="M98.2,79.6c.4,1.6.5,139.3,0,141.3h-35.9V79.6h35.9Z"/>
            <path class="cls-1" d="M176.8,192h60.1v28.9h-109.7V79.6h107.2c.4,1.5.6,25.8.1,28.9-4.7.2-9.4,0-14.1.1h-56.9v24.8h64.9v28.5h-64.9v29.9c2.1.2,4.3,0,6.5,0h6.8v.2Z"/>
            <path class="cls-1" d="M368.2,192v28.8c-1.5.4-106.7.5-109.6,0V79.7h107.2c.4,1.5.5,26.4,0,29h-70.7c-.5,1.8-.5,22.5-.1,24.8h64.9v28.5h-65v30h73.3Z"/>
          </g>
        </g>
      </g>
    </g>
  </g>
</svg>